<svg width="25" height="22" viewBox="0 0 25 22" fill="none" xmlns="http://www.w3.org/2000/svg">
<path d="M9.94385 13.5C9.94385 14.163 10.2131 14.7989 10.6924 15.2678C11.1716 15.7366 11.8217 16 12.4995 16C13.1773 16 13.8273 15.7366 14.3066 15.2678C14.7859 14.7989 15.0551 14.163 15.0551 13.5C15.0551 12.837 14.7859 12.2011 14.3066 11.7322C13.8273 11.2634 13.1773 11 12.4995 11C11.8217 11 11.1716 11.2634 10.6924 11.7322C10.2131 12.2011 9.94385 12.837 9.94385 13.5Z" stroke="black" stroke-width="2" stroke-linecap="round" stroke-linejoin="round"/>
<path d="M18.8884 8.5L16.3328 1M6.11029 8.5L8.66592 1M3.55594 6H21.4441C21.8125 5.99996 22.1767 6.07786 22.5115 6.22838C22.8463 6.37889 23.1439 6.59845 23.3839 6.872C23.6238 7.14556 23.8005 7.46664 23.9017 7.81323C24.0029 8.15982 24.0263 8.52373 23.9703 8.88L22.3666 17.82C22.2274 18.7056 21.7687 19.5131 21.0735 20.0964C20.3783 20.6797 19.4926 21.0003 18.5766 21H6.42207C5.50639 21 4.62097 20.6793 3.92603 20.096C3.23109 19.5127 2.77254 18.7053 2.63335 17.82L1.0297 8.88C0.973686 8.52373 0.997096 8.15982 1.09832 7.81323C1.19954 7.46664 1.37619 7.14556 1.61614 6.872C1.8561 6.59845 2.15368 6.37889 2.4885 6.22838C2.82332 6.07786 3.18746 5.99996 3.55594 6Z" stroke="black" stroke-width="2" stroke-linecap="round" stroke-linejoin="round"/>
</svg>
