<svg width="25" height="25" viewBox="0 0 25 25" fill="none" xmlns="http://www.w3.org/2000/svg">
<path d="M17.9471 8.66667L15.526 1M5.84138 8.66667L8.26253 1M13.7101 21.4444H6.13676C5.26926 21.4444 4.43043 21.1166 3.77206 20.5203C3.11368 19.9241 2.67926 19.0988 2.5474 18.1938L1.02813 9.05511C0.975071 8.69092 0.997249 8.31893 1.09315 7.96464C1.18904 7.61034 1.35639 7.28213 1.58372 7.00249C1.81105 6.72286 2.09298 6.49842 2.41018 6.34456C2.72738 6.1907 3.07235 6.11107 3.42144 6.11111H20.3683C20.7174 6.11107 21.0623 6.1907 21.3795 6.34456C21.6967 6.49842 21.9787 6.72286 22.206 7.00249C22.4333 7.28213 22.6007 7.61034 22.6966 7.96464C22.7925 8.31893 22.8146 8.69092 22.7616 9.05511L22.1176 12.9268" stroke="#F1F1D5" stroke-width="2" stroke-linecap="round" stroke-linejoin="round"/>
<path d="M24 24L17.9472 17.6111M17.9472 24L24 17.6111M9.47314 13.7778C9.47314 14.4556 9.72823 15.1056 10.1823 15.5848C10.6363 16.0641 11.2522 16.3333 11.8943 16.3333C12.5364 16.3333 13.1523 16.0641 13.6063 15.5848C14.0604 15.1056 14.3154 14.4556 14.3154 13.7778C14.3154 13.1 14.0604 12.45 13.6063 11.9707C13.1523 11.4915 12.5364 11.2222 11.8943 11.2222C11.2522 11.2222 10.6363 11.4915 10.1823 11.9707C9.72823 12.45 9.47314 13.1 9.47314 13.7778Z" stroke="#F1F1D5" stroke-width="2" stroke-linecap="round" stroke-linejoin="round"/>
</svg>
