<svg width="22" height="22" viewBox="0 0 22 22" fill="none" xmlns="http://www.w3.org/2000/svg">
<path d="M21 3.85714H7.25M4.75 3.85714H1M21 18.1429H7.25M4.75 18.1429H1M14.75 11H1M21 11H17.25M6 1C6.33152 1 6.64946 1.15051 6.88388 1.41842C7.1183 1.68633 7.25 2.04969 7.25 2.42857V5.28571C7.25 5.6646 7.1183 6.02796 6.88388 6.29587C6.64946 6.56378 6.33152 6.71429 6 6.71429C5.66848 6.71429 5.35054 6.56378 5.11612 6.29587C4.8817 6.02796 4.75 5.6646 4.75 5.28571V2.42857C4.75 2.04969 4.8817 1.68633 5.11612 1.41842C5.35054 1.15051 5.66848 1 6 1ZM6 15.2857C6.33152 15.2857 6.64946 15.4362 6.88388 15.7041C7.1183 15.972 7.25 16.3354 7.25 16.7143V19.5714C7.25 19.9503 7.1183 20.3137 6.88388 20.5816C6.64946 20.8495 6.33152 21 6 21C5.66848 21 5.35054 20.8495 5.11612 20.5816C4.8817 20.3137 4.75 19.9503 4.75 19.5714V16.7143C4.75 16.3354 4.8817 15.972 5.11612 15.7041C5.35054 15.4362 5.66848 15.2857 6 15.2857ZM16 8.14286C16.3315 8.14286 16.6495 8.29337 16.8839 8.56128C17.1183 8.82919 17.25 9.19255 17.25 9.57143V12.4286C17.25 12.8075 17.1183 13.1708 16.8839 13.4387C16.6495 13.7066 16.3315 13.8571 16 13.8571C15.6685 13.8571 15.3505 13.7066 15.1161 13.4387C14.8817 13.1708 14.75 12.8075 14.75 12.4286V9.57143C14.75 9.19255 14.8817 8.82919 15.1161 8.56128C15.3505 8.29337 15.6685 8.14286 16 8.14286Z" stroke="white" stroke-linecap="round" stroke-linejoin="round"/>
</svg>
