<svg width="25" height="25" viewBox="0 0 25 25" fill="none" xmlns="http://www.w3.org/2000/svg">
<path d="M18.8884 9.11765L16.3328 1M6.11029 9.11765L8.66592 1M11.2215 22.6471H6.42207C5.50639 22.647 4.62097 22.2999 3.92603 21.6686C3.23109 21.0373 2.77254 20.1634 2.63335 19.2052L1.0297 9.52894C0.973686 9.14333 0.997096 8.74946 1.09832 8.37432C1.19954 7.99919 1.37619 7.65166 1.61614 7.35558C1.8561 7.0595 2.15368 6.82186 2.4885 6.65895C2.82332 6.49604 3.18746 6.41172 3.55594 6.41176H21.4441C21.8125 6.41172 22.1767 6.49604 22.5115 6.65895C22.8463 6.82186 23.1439 7.0595 23.3839 7.35558C23.6238 7.65166 23.8005 7.99919 23.9017 8.37432C24.0029 8.74946 24.0263 9.14333 23.9703 9.52894L23.3582 13.2211" stroke="#F1F1D5" stroke-width="2" stroke-linecap="round" stroke-linejoin="round"/>
<path d="M16.3329 21.2941L18.8886 24L23.9998 18.5882M9.94385 14.5294C9.94385 15.2471 10.2131 15.9353 10.6924 16.4428C11.1716 16.9502 11.8217 17.2353 12.4995 17.2353C13.1773 17.2353 13.8273 16.9502 14.3066 16.4428C14.7859 15.9353 15.0551 15.2471 15.0551 14.5294C15.0551 13.8118 14.7859 13.1235 14.3066 12.6161C13.8273 12.1086 13.1773 11.8235 12.4995 11.8235C11.8217 11.8235 11.1716 12.1086 10.6924 12.6161C10.2131 13.1235 9.94385 13.8118 9.94385 14.5294Z" stroke="#F1F1D5" stroke-width="2" stroke-linecap="round" stroke-linejoin="round"/>
</svg>
