<svg width="23" height="23" viewBox="0 0 23 23" fill="none" xmlns="http://www.w3.org/2000/svg">
<path d="M16.5903 0C14.399 0 12.5266 1.78764 11.4979 3.02008C10.4692 1.78764 8.60095 0 6.41073 0C2.63559 0 0 3.0117 0 7.32286C0 12.0731 3.27332 15.1435 6.44 18.1133C7.935 19.5169 9.48227 20.9671 10.6689 22.5752C10.8685 22.8444 11.1613 23 11.4686 23H11.5293C11.8377 23 12.1294 22.8433 12.328 22.5752C13.5167 20.9671 15.0629 19.5157 16.559 18.1133C19.7246 15.1447 23 12.0743 23 7.32286C23 3.0117 20.3644 0 16.5903 0Z" fill="#F1F1D5"/>
</svg>
