<svg width="29" height="27" viewBox="0 0 29 27" fill="none" xmlns="http://www.w3.org/2000/svg">
<path d="M28.7063 16.2937C28.7994 16.3866 28.8733 16.4969 28.9237 16.6184C28.9741 16.7399 29 16.8701 29 17.0016C29 17.1331 28.9741 17.2633 28.9237 17.3848C28.8733 17.5062 28.7994 17.6166 28.7063 17.7094L19.7081 26.7076C19.6152 26.8007 19.5049 26.8746 19.3834 26.925C19.262 26.9754 19.1318 27.0013 19.0002 27.0013C18.8687 27.0013 18.7385 26.9754 18.6171 26.925C18.4956 26.8746 18.3853 26.8007 18.2924 26.7076L14.2932 22.7084C14.1055 22.5207 14 22.2661 14 22.0006C14 21.7351 14.1055 21.4804 14.2932 21.2927C14.4809 21.105 14.7356 20.9995 15.0011 20.9995C15.2666 20.9995 15.5212 21.105 15.7089 21.2927L19.0002 24.586L27.2906 16.2937C27.3834 16.2006 27.4938 16.1267 27.6152 16.0763C27.7367 16.0259 27.8669 16 27.9984 16C28.1299 16 28.2601 16.0259 28.3816 16.0763C28.5031 16.1267 28.6134 16.2006 28.7063 16.2937Z" fill="black"/>
<path fill-rule="evenodd" clip-rule="evenodd" d="M10 5.60624e-06C8.4032 -0.00202297 6.85943 0.546531 5.65312 1.5446C4.44681 2.54267 3.65923 3.923 3.43549 5.43128C3.21176 6.93956 3.56694 8.47417 4.4356 9.75235C5.30426 11.0305 6.62787 11.9662 8.16256 12.3869C5.98173 12.6395 4.11141 13.3749 2.70137 14.7008C0.907762 16.3858 0 18.8966 0 22.1723C0 22.3919 0.0914052 22.6024 0.254108 22.7576C0.416811 22.9128 0.637483 23 0.86758 23C1.09768 23 1.31835 22.9128 1.48105 22.7576C1.64375 22.6024 1.73516 22.3919 1.73516 22.1723C1.73516 19.1754 2.56256 17.1542 3.91963 15.8787C5.27854 14.6015 7.30959 13.9394 10 13.9394C12.6904 13.9394 14.7215 14.6015 16.0822 15.8787C17.4374 17.1559 18.2648 19.1754 18.2648 22.1723C18.2648 22.3919 18.3562 22.6024 18.5189 22.7576C18.6816 22.9128 18.9023 23 19.1324 23C19.3625 23 19.5832 22.9128 19.7459 22.7576C19.9086 22.6024 20 22.3919 20 22.1723C20 18.8966 19.0922 16.3875 17.2968 14.7008C15.8904 13.3766 14.0183 12.6395 11.8374 12.3869C13.367 11.9614 14.6846 11.0244 15.5487 9.74742C16.4129 8.47047 16.7657 6.9392 16.5424 5.43426C16.3192 3.92933 15.5349 2.55156 14.3333 1.55348C13.1317 0.5554 11.5932 0.00387992 10 5.60624e-06ZM5.11415 6.31629C5.11415 5.08012 5.62891 3.89458 6.54519 3.02048C7.46146 2.14637 8.70419 1.65531 10 1.65531C11.2958 1.65531 12.5385 2.14637 13.4548 3.02048C14.3711 3.89458 14.8858 5.08012 14.8858 6.31629C14.8858 7.55246 14.3711 8.738 13.4548 9.61211C12.5385 10.4862 11.2958 10.9773 10 10.9773C8.70419 10.9773 7.46146 10.4862 6.54519 9.61211C5.62891 8.738 5.11415 7.55246 5.11415 6.31629Z" fill="black"/>
</svg>
