<svg width="35" height="34" viewBox="0 0 35 34" fill="none" xmlns="http://www.w3.org/2000/svg">
<path d="M14 30C14 32.209 13.209 34 11 34H4C0 34 0 20 4 20H11C13.209 20 14 21.791 14 24V30Z" fill="#553788"/>
<path d="M33 32H32V22H33C33.2652 22 33.5196 21.8946 33.7071 21.7071C33.8946 21.5196 34 21.2652 34 21C34 20.7348 33.8946 20.4804 33.7071 20.2929C33.5196 20.1054 33.2652 20 33 20H9C5 20 5 34 9 34H33C33.2652 34 33.5196 33.8946 33.7071 33.7071C33.8946 33.5196 34 33.2652 34 33C34 32.7348 33.8946 32.4804 33.7071 32.2929C33.5196 32.1054 33.2652 32 33 32Z" fill="#9266CC"/>
<path d="M33.172 32H10C8 32 8 22 10 22H33.172C34.276 22 34.276 32 33.172 32Z" fill="#CCD6DD"/>
<path d="M10.5 24H33.85C33.715 22.825 33.49 22 33.172 22H10C8.349 22 8.062 28.808 9.137 31.188C8.745 28.229 9.199 24 10.5 24Z" fill="#99AAB5"/>
<path d="M11 7C11 8.06087 10.5786 9.07828 9.82843 9.82843C9.07828 10.5786 8.06087 11 7 11H3C-1 11 -1 0 3 0H7C8.06087 0 9.07828 0.421427 9.82843 1.17157C10.5786 1.92172 11 2.93913 11 4V7Z" fill="#226699"/>
<path d="M30 9H29V2H30C30.2652 2 30.5196 1.89464 30.7071 1.70711C30.8946 1.51957 31 1.26522 31 1C31 0.734784 30.8946 0.48043 30.7071 0.292893C30.5196 0.105357 30.2652 0 30 0H6C2 0 2 11 6 11H30C30.2652 11 30.5196 10.8946 30.7071 10.7071C30.8946 10.5196 31 10.2652 31 10C31 9.73478 30.8946 9.48043 30.7071 9.29289C30.5196 9.10536 30.2652 9 30 9Z" fill="#55ACEE"/>
<path d="M30.172 9H7C5 9 5 2 7 2H30.172C31.276 2 31.276 9 30.172 9Z" fill="#CCD6DD"/>
<path d="M7 4H30.925C30.811 2.875 30.561 2 30.172 2H7C5.807 2 5.331 4.489 5.562 6.5C5.718 5.142 6.193 4 7 4Z" fill="#99AAB5"/>
<path d="M19 16C19 17.0609 18.5786 18.0783 17.8284 18.8284C17.0783 19.5786 16.0609 20 15 20H5C1 20 1 11 5 11H15C16.0609 11 17.0783 11.4214 17.8284 12.1716C18.5786 12.9217 19 13.9391 19 15V16Z" fill="#F4900C"/>
<path d="M34 18H33V13H34C34.2652 13 34.5196 12.8946 34.7071 12.7071C34.8946 12.5196 35 12.2652 35 12C35 11.7348 34.8946 11.4804 34.7071 11.2929C34.5196 11.1054 34.2652 11 34 11H14C10 11 10 20 14 20H34C34.2652 20 34.5196 19.8946 34.7071 19.7071C34.8946 19.5196 35 19.2652 35 19C35 18.7348 34.8946 18.4804 34.7071 18.2929C34.5196 18.1054 34.2652 18 34 18Z" fill="#FFAC33"/>
<path d="M34.172 18H15C13 18 13 13 15 13H34.172C35.276 13 35.276 18 34.172 18Z" fill="#CCD6DD"/>
<path d="M15 15H34.984C34.919 13.938 34.65 13 34.172 13H15C13.726 13 13.267 15.027 13.617 16.5C13.815 15.661 14.274 15 15 15Z" fill="#99AAB5"/>
</svg>
